<svg width="177" height="52" viewBox="0 0 177 52" fill="none" xmlns="http://www.w3.org/2000/svg">
<path d="M24.2026 15L19.4426 0.999999H20.5226L25.0426 14.38H24.5026L29.1626 0.999999H30.1426L34.7626 14.38H34.2426L38.8026 0.999999H39.8026L35.0626 15H33.9826L29.5026 2.06H29.7626L25.2826 15H24.2026ZM43.6427 7.44H51.2227V8.34H43.6427V7.44ZM43.7627 14.08H52.4027V15H42.7427V0.999999H52.1027V1.92H43.7627V14.08ZM56.1216 15V0.999999H57.1416V14.08H65.2016V15H56.1216ZM73.4674 15.1C72.4274 15.1 71.4608 14.9267 70.5674 14.58C69.6874 14.22 68.9208 13.72 68.2674 13.08C67.6141 12.44 67.1074 11.6933 66.7474 10.84C66.3874 9.97333 66.2074 9.02667 66.2074 8C66.2074 6.97333 66.3874 6.03333 66.7474 5.18C67.1074 4.31333 67.6141 3.56 68.2674 2.92C68.9341 2.28 69.7074 1.78667 70.5874 1.44C71.4674 1.08 72.4274 0.899999 73.4674 0.899999C74.4541 0.899999 75.3741 1.06 76.2274 1.38C77.0941 1.7 77.8341 2.18667 78.4474 2.84L77.8074 3.5C77.2074 2.91333 76.5408 2.49333 75.8074 2.24C75.0874 1.97333 74.3208 1.84 73.5074 1.84C72.6141 1.84 71.7808 1.99333 71.0074 2.3C70.2474 2.60667 69.5808 3.04 69.0074 3.6C68.4474 4.16 68.0074 4.81333 67.6874 5.56C67.3808 6.30667 67.2274 7.12 67.2274 8C67.2274 8.88 67.3808 9.69333 67.6874 10.44C68.0074 11.1867 68.4474 11.84 69.0074 12.4C69.5808 12.96 70.2474 13.3933 71.0074 13.7C71.7808 14.0067 72.6141 14.16 73.5074 14.16C74.3208 14.16 75.0874 14.0333 75.8074 13.78C76.5408 13.5133 77.2074 13.08 77.8074 12.48L78.4474 13.14C77.8341 13.7933 77.0941 14.2867 76.2274 14.62C75.3741 14.94 74.4541 15.1 73.4674 15.1ZM87.5109 15.1C86.4709 15.1 85.5042 14.9267 84.6109 14.58C83.7309 14.22 82.9575 13.72 82.2909 13.08C81.6375 12.4267 81.1309 11.6733 80.7709 10.82C80.4109 9.95333 80.2309 9.01333 80.2309 8C80.2309 6.98667 80.4109 6.05333 80.7709 5.2C81.1309 4.33333 81.6375 3.58 82.2909 2.94C82.9575 2.28667 83.7309 1.78667 84.6109 1.44C85.5042 1.08 86.4709 0.899999 87.5109 0.899999C88.5509 0.899999 89.5109 1.08 90.3909 1.44C91.2842 1.78667 92.0575 2.28 92.7109 2.92C93.3642 3.56 93.8709 4.31333 94.2309 5.18C94.6042 6.03333 94.7909 6.97333 94.7909 8C94.7909 9.02667 94.6042 9.97333 94.2309 10.84C93.8709 11.6933 93.3642 12.44 92.7109 13.08C92.0575 13.72 91.2842 14.22 90.3909 14.58C89.5109 14.9267 88.5509 15.1 87.5109 15.1ZM87.5109 14.16C88.4042 14.16 89.2309 14.0067 89.9909 13.7C90.7509 13.3933 91.4109 12.96 91.9709 12.4C92.5309 11.84 92.9642 11.1867 93.2709 10.44C93.5909 9.69333 93.7509 8.88 93.7509 8C93.7509 7.10667 93.5909 6.29333 93.2709 5.56C92.9642 4.81333 92.5309 4.16 91.9709 3.6C91.4109 3.04 90.7509 2.60667 89.9909 2.3C89.2309 1.99333 88.4042 1.84 87.5109 1.84C86.6175 1.84 85.7909 1.99333 85.0309 2.3C84.2709 2.60667 83.6042 3.04 83.0309 3.6C82.4709 4.16 82.0309 4.81333 81.7109 5.56C81.4042 6.29333 81.2509 7.10667 81.2509 8C81.2509 8.88 81.4042 9.69333 81.7109 10.44C82.0309 11.1867 82.4709 11.84 83.0309 12.4C83.6042 12.96 84.2709 13.3933 85.0309 13.7C85.7909 14.0067 86.6175 14.16 87.5109 14.16ZM98.3287 15V0.999999H99.1887L105.689 12.22H105.229L111.709 0.999999H112.549L112.569 15H111.569L111.549 2.54H111.829L105.689 13.14H105.189L99.0287 2.54H99.3287V15H98.3287ZM118.35 7.44H125.93V8.34H118.35V7.44ZM118.47 14.08H127.11V15H117.45V0.999999H126.81V1.92H118.47V14.08ZM138.645 15V1.92H133.605V0.999999H144.705V1.92H139.665V15H138.645ZM152.98 15.1C151.94 15.1 150.973 14.9267 150.08 14.58C149.2 14.22 148.426 13.72 147.76 13.08C147.106 12.4267 146.6 11.6733 146.24 10.82C145.88 9.95333 145.7 9.01333 145.7 8C145.7 6.98667 145.88 6.05333 146.24 5.2C146.6 4.33333 147.106 3.58 147.76 2.94C148.426 2.28667 149.2 1.78667 150.08 1.44C150.973 1.08 151.94 0.899999 152.98 0.899999C154.02 0.899999 154.98 1.08 155.86 1.44C156.753 1.78667 157.526 2.28 158.18 2.92C158.833 3.56 159.34 4.31333 159.7 5.18C160.073 6.03333 160.26 6.97333 160.26 8C160.26 9.02667 160.073 9.97333 159.7 10.84C159.34 11.6933 158.833 12.44 158.18 13.08C157.526 13.72 156.753 14.22 155.86 14.58C154.98 14.9267 154.02 15.1 152.98 15.1ZM152.98 14.16C153.873 14.16 154.7 14.0067 155.46 13.7C156.22 13.3933 156.88 12.96 157.44 12.4C158 11.84 158.433 11.1867 158.74 10.44C159.06 9.69333 159.22 8.88 159.22 8C159.22 7.10667 159.06 6.29333 158.74 5.56C158.433 4.81333 158 4.16 157.44 3.6C156.88 3.04 156.22 2.60667 155.46 2.3C154.7 1.99333 153.873 1.84 152.98 1.84C152.086 1.84 151.26 1.99333 150.5 2.3C149.74 2.60667 149.073 3.04 148.5 3.6C147.94 4.16 147.5 4.81333 147.18 5.56C146.873 6.29333 146.72 7.10667 146.72 8C146.72 8.88 146.873 9.69333 147.18 10.44C147.5 11.1867 147.94 11.84 148.5 12.4C149.073 12.96 149.74 13.3933 150.5 13.7C151.26 14.0067 152.086 14.16 152.98 14.16ZM0.976242 51L12.6042 24.4H21.4202L33.0482 51H23.7762L15.1882 28.656H18.6842L10.0962 51H0.976242ZM7.89224 46.364L10.1722 39.904H22.4082L24.6882 46.364H7.89224ZM42.1599 51.38C40.3866 51.38 38.6386 51.19 36.9159 50.81C35.1933 50.43 33.7999 49.936 32.7359 49.328L35.0919 43.666C36.0799 44.2487 37.2199 44.7047 38.5119 45.034C39.8293 45.3633 41.1086 45.528 42.3499 45.528C43.3886 45.528 44.0853 45.4393 44.4399 45.262C44.8199 45.0847 45.0099 44.844 45.0099 44.54C45.0099 44.236 44.7946 44.0207 44.3639 43.894C43.9333 43.742 43.3633 43.628 42.6539 43.552C41.9446 43.476 41.1593 43.3873 40.2979 43.286C39.4619 43.1593 38.6133 42.982 37.7519 42.754C36.8906 42.526 36.1053 42.184 35.3959 41.728C34.6866 41.272 34.1166 40.664 33.6859 39.904C33.2553 39.1187 33.0399 38.1307 33.0399 36.94C33.0399 35.6227 33.4326 34.432 34.2179 33.368C35.0286 32.304 36.2193 31.4553 37.7899 30.822C39.3859 30.1633 41.3493 29.834 43.6799 29.834C45.1999 29.834 46.7199 29.9733 48.2399 30.252C49.7599 30.5307 51.0646 30.9613 52.1539 31.544L49.7979 37.206C48.7339 36.6233 47.6826 36.2307 46.6439 36.028C45.6306 35.8 44.6806 35.686 43.7939 35.686C42.7046 35.686 41.9573 35.7873 41.5519 35.99C41.1719 36.1927 40.9819 36.4207 40.9819 36.674C40.9819 36.978 41.1973 37.206 41.6279 37.358C42.0586 37.51 42.6286 37.624 43.3379 37.7C44.0473 37.776 44.8199 37.8773 45.6559 38.004C46.5173 38.1053 47.3659 38.2827 48.2019 38.536C49.0633 38.764 49.8486 39.106 50.5579 39.562C51.2673 40.018 51.8373 40.6387 52.2679 41.424C52.6986 42.184 52.9139 43.1593 52.9139 44.35C52.9139 45.5913 52.5213 46.7567 51.7359 47.846C50.9506 48.91 49.7599 49.7713 48.1639 50.43C46.5679 51.0633 44.5666 51.38 42.1599 51.38ZM68.0923 51V47.314L67.4843 46.326V39.334C67.4843 38.3207 67.1676 37.548 66.5343 37.016C65.9263 36.484 64.9256 36.218 63.5323 36.218C62.5949 36.218 61.6449 36.37 60.6823 36.674C59.7196 36.9527 58.8963 37.3453 58.2123 37.852L55.4763 32.19C56.6923 31.43 58.1489 30.8473 59.8463 30.442C61.5436 30.0367 63.2029 29.834 64.8243 29.834C68.3963 29.834 71.1576 30.632 73.1083 32.228C75.0843 33.824 76.0723 36.3573 76.0723 39.828V51H68.0923ZM62.2023 51.38C60.5049 51.38 59.0863 51.0887 57.9463 50.506C56.8063 49.9233 55.9449 49.1507 55.3623 48.188C54.7796 47.2 54.4883 46.1107 54.4883 44.92C54.4883 43.5773 54.8303 42.4373 55.5143 41.5C56.1983 40.5627 57.2369 39.8533 58.6303 39.372C60.0489 38.8907 61.8349 38.65 63.9883 38.65H68.3203V42.792H65.3563C64.4443 42.792 63.7729 42.944 63.3423 43.248C62.9369 43.5267 62.7343 43.9573 62.7343 44.54C62.7343 45.0213 62.9116 45.4267 63.2663 45.756C63.6463 46.06 64.1529 46.212 64.7863 46.212C65.3689 46.212 65.9009 46.06 66.3823 45.756C66.8889 45.4267 67.2563 44.92 67.4843 44.236L68.5863 46.782C68.2569 48.3273 67.5603 49.48 66.4963 50.24C65.4323 51 64.0009 51.38 62.2023 51.38ZM79.0998 51V45.49L93.9198 28.238L95.0218 31.354H79.4798V24.4H102.926V29.91L88.1058 47.162L87.0038 44.046H103.534V51H79.0998ZM118.635 51V47.314L118.027 46.326V39.334C118.027 38.3207 117.711 37.548 117.077 37.016C116.469 36.484 115.469 36.218 114.075 36.218C113.138 36.218 112.188 36.37 111.225 36.674C110.263 36.9527 109.439 37.3453 108.755 37.852L106.019 32.19C107.235 31.43 108.692 30.8473 110.389 30.442C112.087 30.0367 113.746 29.834 115.367 29.834C118.939 29.834 121.701 30.632 123.651 32.228C125.627 33.824 126.615 36.3573 126.615 39.828V51H118.635ZM112.745 51.38C111.048 51.38 109.629 51.0887 108.489 50.506C107.349 49.9233 106.488 49.1507 105.905 48.188C105.323 47.2 105.031 46.1107 105.031 44.92C105.031 43.5773 105.373 42.4373 106.057 41.5C106.741 40.5627 107.78 39.8533 109.173 39.372C110.592 38.8907 112.378 38.65 114.531 38.65H118.863V42.792H115.899C114.987 42.792 114.316 42.944 113.885 43.248C113.48 43.5267 113.277 43.9573 113.277 44.54C113.277 45.0213 113.455 45.4267 113.809 45.756C114.189 46.06 114.696 46.212 115.329 46.212C115.912 46.212 116.444 46.06 116.925 45.756C117.432 45.4267 117.799 44.92 118.027 44.236L119.129 46.782C118.8 48.3273 118.103 49.48 117.039 50.24C115.975 51 114.544 51.38 112.745 51.38ZM141.68 51.38C139.324 51.38 137.234 50.924 135.41 50.012C133.611 49.0747 132.193 47.7953 131.154 46.174C130.115 44.5527 129.596 42.6907 129.596 40.588C129.596 38.4853 130.115 36.6233 131.154 35.002C132.193 33.3807 133.611 32.114 135.41 31.202C137.234 30.29 139.324 29.834 141.68 29.834C144.036 29.834 146.126 30.29 147.95 31.202C149.774 32.114 151.193 33.3807 152.206 35.002C153.245 36.6233 153.764 38.4853 153.764 40.588C153.764 42.6907 153.245 44.5527 152.206 46.174C151.193 47.7953 149.774 49.0747 147.95 50.012C146.126 50.924 144.036 51.38 141.68 51.38ZM141.68 44.692C142.313 44.692 142.883 44.54 143.39 44.236C143.897 43.932 144.302 43.476 144.606 42.868C144.91 42.2347 145.062 41.4747 145.062 40.588C145.062 39.676 144.91 38.9287 144.606 38.346C144.302 37.738 143.897 37.282 143.39 36.978C142.883 36.674 142.313 36.522 141.68 36.522C141.047 36.522 140.477 36.674 139.97 36.978C139.463 37.282 139.058 37.738 138.754 38.346C138.45 38.9287 138.298 39.676 138.298 40.588C138.298 41.4747 138.45 42.2347 138.754 42.868C139.058 43.476 139.463 43.932 139.97 44.236C140.477 44.54 141.047 44.692 141.68 44.692ZM168.51 51V47.314L167.902 46.326V39.334C167.902 38.3207 167.586 37.548 166.952 37.016C166.344 36.484 165.344 36.218 163.95 36.218C163.013 36.218 162.063 36.37 161.1 36.674C160.138 36.9527 159.314 37.3453 158.63 37.852L155.894 32.19C157.11 31.43 158.567 30.8473 160.264 30.442C161.962 30.0367 163.621 29.834 165.242 29.834C168.814 29.834 171.576 30.632 173.526 32.228C175.502 33.824 176.49 36.3573 176.49 39.828V51H168.51ZM162.62 51.38C160.923 51.38 159.504 51.0887 158.364 50.506C157.224 49.9233 156.363 49.1507 155.78 48.188C155.198 47.2 154.906 46.1107 154.906 44.92C154.906 43.5773 155.248 42.4373 155.932 41.5C156.616 40.5627 157.655 39.8533 159.048 39.372C160.467 38.8907 162.253 38.65 164.406 38.65H168.738V42.792H165.774C164.862 42.792 164.191 42.944 163.76 43.248C163.355 43.5267 163.152 43.9573 163.152 44.54C163.152 45.0213 163.33 45.4267 163.684 45.756C164.064 46.06 164.571 46.212 165.204 46.212C165.787 46.212 166.319 46.06 166.8 45.756C167.307 45.4267 167.674 44.92 167.902 44.236L169.004 46.782C168.675 48.3273 167.978 49.48 166.914 50.24C165.85 51 164.419 51.38 162.62 51.38Z" fill="#015377"/>
</svg>
