<svg width="27" height="27" viewBox="0 0 27 27" fill="none" xmlns="http://www.w3.org/2000/svg">
<path d="M10.9168 14.7916H1.87516C1.53259 14.7916 1.20405 14.9277 0.961816 15.17C0.719582 15.4122 0.583496 15.7407 0.583496 16.0833V25.125C0.583496 25.4676 0.719582 25.7961 0.961816 26.0383C1.20405 26.2806 1.53259 26.4166 1.87516 26.4166H10.9168C11.2594 26.4166 11.5879 26.2806 11.8302 26.0383C12.0724 25.7961 12.2085 25.4676 12.2085 25.125V16.0833C12.2085 15.7407 12.0724 15.4122 11.8302 15.17C11.5879 14.9277 11.2594 14.7916 10.9168 14.7916ZM9.62516 23.8333H3.16683V17.375H9.62516V23.8333ZM25.1252 0.583313H16.0835C15.7409 0.583313 15.4124 0.719399 15.1701 0.961633C14.9279 1.20387 14.7918 1.53241 14.7918 1.87498V10.9166C14.7918 11.2592 14.9279 11.5878 15.1701 11.83C15.4124 12.0722 15.7409 12.2083 16.0835 12.2083H25.1252C25.4677 12.2083 25.7963 12.0722 26.0385 11.83C26.2807 11.5878 26.4168 11.2592 26.4168 10.9166V1.87498C26.4168 1.53241 26.2807 1.20387 26.0385 0.961633C25.7963 0.719399 25.4677 0.583313 25.1252 0.583313ZM23.8335 9.62498H17.3752V3.16665H23.8335V9.62498ZM25.1252 14.7916H16.0835C15.7409 14.7916 15.4124 14.9277 15.1701 15.17C14.9279 15.4122 14.7918 15.7407 14.7918 16.0833V25.125C14.7918 25.4676 14.9279 25.7961 15.1701 26.0383C15.4124 26.2806 15.7409 26.4166 16.0835 26.4166H25.1252C25.4677 26.4166 25.7963 26.2806 26.0385 26.0383C26.2807 25.7961 26.4168 25.4676 26.4168 25.125V16.0833C26.4168 15.7407 26.2807 15.4122 26.0385 15.17C25.7963 14.9277 25.4677 14.7916 25.1252 14.7916ZM23.8335 23.8333H17.3752V17.375H23.8335V23.8333ZM10.9168 0.583313H1.87516C1.53259 0.583313 1.20405 0.719399 0.961816 0.961633C0.719582 1.20387 0.583496 1.53241 0.583496 1.87498V10.9166C0.583496 11.2592 0.719582 11.5878 0.961816 11.83C1.20405 12.0722 1.53259 12.2083 1.87516 12.2083H10.9168C11.2594 12.2083 11.5879 12.0722 11.8302 11.83C12.0724 11.5878 12.2085 11.2592 12.2085 10.9166V1.87498C12.2085 1.53241 12.0724 1.20387 11.8302 0.961633C11.5879 0.719399 11.2594 0.583313 10.9168 0.583313ZM9.62516 9.62498H3.16683V3.16665H9.62516V9.62498Z" fill="#5F5F5F"/>
</svg>
