<svg width="21" height="27" viewBox="0 0 21 27" fill="none" xmlns="http://www.w3.org/2000/svg">
<path d="M11.7915 16.0833H6.62484C6.28227 16.0833 5.95373 16.2194 5.71149 16.4616C5.46926 16.7039 5.33317 17.0324 5.33317 17.375C5.33317 17.7176 5.46926 18.0461 5.71149 18.2883C5.95373 18.5306 6.28227 18.6666 6.62484 18.6666H11.7915C12.1341 18.6666 12.4626 18.5306 12.7049 18.2883C12.9471 18.0461 13.0832 17.7176 13.0832 17.375C13.0832 17.0324 12.9471 16.7039 12.7049 16.4616C12.4626 16.2194 12.1341 16.0833 11.7915 16.0833ZM16.9582 3.16665H15.434C15.1675 2.41289 14.6744 1.76002 14.0223 1.29753C13.3702 0.835031 12.591 0.58556 11.7915 0.583313H9.20817C8.4087 0.58556 7.6295 0.835031 6.97738 1.29753C6.32526 1.76002 5.83216 2.41289 5.56567 3.16665H4.0415C3.01379 3.16665 2.02817 3.5749 1.30147 4.30161C0.574762 5.02831 0.166504 6.01393 0.166504 7.04165V22.5416C0.166504 23.5694 0.574762 24.555 1.30147 25.2817C2.02817 26.0084 3.01379 26.4166 4.0415 26.4166H16.9582C17.9859 26.4166 18.9715 26.0084 19.6982 25.2817C20.4249 24.555 20.8332 23.5694 20.8332 22.5416V7.04165C20.8332 6.01393 20.4249 5.02831 19.6982 4.30161C18.9715 3.5749 17.9859 3.16665 16.9582 3.16665ZM7.9165 4.45831C7.9165 4.11574 8.05259 3.7872 8.29482 3.54497C8.53706 3.30273 8.8656 3.16665 9.20817 3.16665H11.7915C12.1341 3.16665 12.4626 3.30273 12.7049 3.54497C12.9471 3.7872 13.0832 4.11574 13.0832 4.45831V5.74998H7.9165V4.45831ZM18.2498 22.5416C18.2498 22.8842 18.1138 23.2128 17.8715 23.455C17.6293 23.6972 17.3007 23.8333 16.9582 23.8333H4.0415C3.69893 23.8333 3.37039 23.6972 3.12816 23.455C2.88592 23.2128 2.74984 22.8842 2.74984 22.5416V7.04165C2.74984 6.69907 2.88592 6.37053 3.12816 6.1283C3.37039 5.88607 3.69893 5.74998 4.0415 5.74998H5.33317V7.04165C5.33317 7.38422 5.46926 7.71276 5.71149 7.95499C5.95373 8.19723 6.28227 8.33331 6.62484 8.33331H14.3748C14.7174 8.33331 15.0459 8.19723 15.2882 7.95499C15.5304 7.71276 15.6665 7.38422 15.6665 7.04165V5.74998H16.9582C17.3007 5.74998 17.6293 5.88607 17.8715 6.1283C18.1138 6.37053 18.2498 6.69907 18.2498 7.04165V22.5416ZM14.3748 10.9166H6.62484C6.28227 10.9166 5.95373 11.0527 5.71149 11.295C5.46926 11.5372 5.33317 11.8657 5.33317 12.2083C5.33317 12.5509 5.46926 12.8794 5.71149 13.1217C5.95373 13.3639 6.28227 13.5 6.62484 13.5H14.3748C14.7174 13.5 15.0459 13.3639 15.2882 13.1217C15.5304 12.8794 15.6665 12.5509 15.6665 12.2083C15.6665 11.8657 15.5304 11.5372 15.2882 11.295C15.0459 11.0527 14.7174 10.9166 14.3748 10.9166Z" fill="#5F5F5F"/>
</svg>
