<svg width="24" height="27" viewBox="0 0 24 27" fill="none" xmlns="http://www.w3.org/2000/svg">
<path d="M22.0001 8.33334L14.5001 1.53917C13.8126 0.903733 12.9225 0.552429 12.0001 0.552429C11.0777 0.552429 10.1876 0.903733 9.50012 1.53917L2.00012 8.33334C1.60308 8.70027 1.28624 9.15039 1.07071 9.65374C0.855173 10.1571 0.745884 10.7021 0.750118 11.2525V22.5417C0.750118 23.5694 1.14521 24.555 1.84847 25.2817C2.55173 26.0084 3.50556 26.4167 4.50012 26.4167H19.5001C20.4947 26.4167 21.4485 26.0084 22.1518 25.2817C22.855 24.555 23.2501 23.5694 23.2501 22.5417V11.2396C23.2526 10.6914 23.1424 10.1488 22.927 9.64785C22.7115 9.14686 22.3956 8.69883 22.0001 8.33334ZM14.5001 23.8333H9.50012V17.375C9.50012 17.0324 9.63181 16.7039 9.86624 16.4617C10.1007 16.2194 10.4186 16.0833 10.7501 16.0833H13.2501C13.5816 16.0833 13.8996 16.2194 14.134 16.4617C14.3684 16.7039 14.5001 17.0324 14.5001 17.375V23.8333ZM20.7501 22.5417C20.7501 22.8842 20.6184 23.2128 20.384 23.455C20.1496 23.6973 19.8316 23.8333 19.5001 23.8333H17.0001V17.375C17.0001 16.3473 16.605 15.3617 15.9018 14.635C15.1985 13.9083 14.2447 13.5 13.2501 13.5H10.7501C9.75556 13.5 8.80173 13.9083 8.09847 14.635C7.39521 15.3617 7.00012 16.3473 7.00012 17.375V23.8333H4.50012C4.1686 23.8333 3.85066 23.6973 3.61624 23.455C3.38181 23.2128 3.25012 22.8842 3.25012 22.5417V11.2396C3.25034 11.0562 3.28836 10.8749 3.36164 10.7079C3.43492 10.5409 3.54178 10.3919 3.67512 10.2708L11.1751 3.48959C11.4032 3.28251 11.6965 3.16831 12.0001 3.16831C12.3038 3.16831 12.597 3.28251 12.8251 3.48959L20.3251 10.2708C20.4585 10.3919 20.5653 10.5409 20.6386 10.7079C20.7119 10.8749 20.7499 11.0562 20.7501 11.2396V22.5417Z" fill="#13BDE8"/>
</svg>
