<svg width="27" height="21" viewBox="0 0 27 21" fill="none" xmlns="http://www.w3.org/2000/svg">
<path d="M22.5418 0.166687H4.4585C3.43078 0.166687 2.44516 0.574945 1.71846 1.30165C0.991754 2.02835 0.583496 3.01397 0.583496 4.04169V16.9584C0.583496 17.9861 0.991754 18.9717 1.71846 19.6984C2.44516 20.4251 3.43078 20.8334 4.4585 20.8334H22.5418C23.5695 20.8334 24.5552 20.4251 25.2819 19.6984C26.0086 18.9717 26.4168 17.9861 26.4168 16.9584V4.04169C26.4168 3.01397 26.0086 2.02835 25.2819 1.30165C24.5552 0.574945 23.5695 0.166687 22.5418 0.166687ZM4.4585 2.75002H22.5418C22.8844 2.75002 23.2129 2.88611 23.4552 3.12834C23.6974 3.37058 23.8335 3.69912 23.8335 4.04169L13.5002 10.345L3.16683 4.04169C3.16683 3.69912 3.30292 3.37058 3.54515 3.12834C3.78738 2.88611 4.11592 2.75002 4.4585 2.75002ZM23.8335 16.9584C23.8335 17.3009 23.6974 17.6295 23.4552 17.8717C23.2129 18.1139 22.8844 18.25 22.5418 18.25H4.4585C4.11592 18.25 3.78738 18.1139 3.54515 17.8717C3.30292 17.6295 3.16683 17.3009 3.16683 16.9584V6.98669L12.8285 12.8896C13.0249 13.003 13.2476 13.0627 13.4743 13.0627C13.7011 13.0627 13.9238 13.003 14.1202 12.8896L23.8335 6.98669V16.9584Z" fill="#5F5F5F"/>
</svg>
