<svg width="34" height="34" viewBox="0 0 34 34" fill="none" xmlns="http://www.w3.org/2000/svg">
<path d="M16.773 2.79541C14.0621 2.80056 11.4111 3.59395 9.14311 5.07893C6.87509 6.56391 5.08784 8.6764 3.99908 11.1591C2.91031 13.6418 2.56702 16.3875 3.011 19.0618C3.45499 21.7361 4.6671 24.2236 6.49969 26.2213C7.80855 27.6401 9.3971 28.7723 11.1652 29.5468C12.9333 30.3212 14.8427 30.721 16.773 30.721C18.7033 30.721 20.6126 30.3212 22.3807 29.5468C24.1489 28.7723 25.7374 27.6401 27.0463 26.2213C28.8789 24.2236 30.091 21.7361 30.535 19.0618C30.9789 16.3875 30.6356 13.6418 29.5469 11.1591C28.4581 8.6764 26.6709 6.56391 24.4028 5.07893C22.1348 3.59395 19.4839 2.80056 16.773 2.79541ZM16.773 27.9545C13.8775 27.9501 11.0967 26.8227 9.0156 24.8096C9.64743 23.2714 10.7223 21.9559 12.1035 21.03C13.4848 20.1041 15.1101 19.6098 16.773 19.6098C18.4358 19.6098 20.0612 20.1041 21.4424 21.03C22.8237 21.9559 23.8985 23.2714 24.5304 24.8096C22.4493 26.8227 19.6684 27.9501 16.773 27.9545ZM13.9775 13.9772C13.9775 13.4243 14.1415 12.8839 14.4486 12.4241C14.7558 11.9644 15.1924 11.6061 15.7032 11.3946C16.214 11.183 16.7761 11.1276 17.3183 11.2355C17.8606 11.3433 18.3587 11.6096 18.7497 12.0005C19.1406 12.3915 19.4069 12.8896 19.5147 13.4319C19.6226 13.9741 19.5672 14.5362 19.3556 15.047C19.1441 15.5578 18.7858 15.9944 18.326 16.3016C17.8663 16.6087 17.3259 16.7727 16.773 16.7727C16.0316 16.7727 15.3205 16.4782 14.7963 15.9539C14.272 15.4297 13.9775 14.7186 13.9775 13.9772ZM26.4313 22.3636C25.1824 20.2275 23.2604 18.566 20.9662 17.6393C21.6778 16.8323 22.1415 15.8371 22.3016 14.7731C22.4617 13.7092 22.3114 12.6216 21.8687 11.6409C21.4261 10.6602 20.7098 9.82815 19.8059 9.24447C18.902 8.66079 17.8489 8.35032 16.773 8.35032C15.697 8.35032 14.6439 8.66079 13.74 9.24447C12.8362 9.82815 12.1199 10.6602 11.6772 11.6409C11.2345 12.6216 11.0842 13.7092 11.2443 14.7731C11.4044 15.8371 11.8681 16.8323 12.5798 17.6393C10.2856 18.566 8.36352 20.2275 7.11469 22.3636C6.11943 20.6683 5.59357 18.7385 5.59117 16.7727C5.59117 13.8071 6.76925 10.9629 8.86625 8.86594C10.9632 6.76894 13.8074 5.59086 16.773 5.59086C19.7386 5.59086 22.5827 6.76894 24.6797 8.86594C26.7767 10.9629 27.9548 13.8071 27.9548 16.7727C27.9524 18.7385 27.4265 20.6683 26.4313 22.3636Z" fill="#5F5F5F"/>
</svg>
