<svg width="27" height="25" viewBox="0 0 27 25" fill="none" xmlns="http://www.w3.org/2000/svg">
    <path
        d="M25.5385 3.52294L17.7885 0.939603H17.6981C17.638 0.93356 17.5774 0.93356 17.5173 0.939603H17.2202H17.0522H16.9618L9.62517 3.45835L2.2885 0.939603C2.09425 0.875551 1.88757 0.858545 1.68547 0.889984C1.48336 0.921422 1.29161 1.00041 1.126 1.12044C0.959063 1.23929 0.822801 1.39616 0.72847 1.57808C0.63414 1.76001 0.584448 1.96176 0.5835 2.16669V20.25C0.582801 20.5208 0.667225 20.785 0.824838 21.0052C0.982451 21.2254 1.20528 21.3905 1.46183 21.4771L9.21183 24.0604C9.47204 24.1453 9.75247 24.1453 10.0127 24.0604L17.3752 21.6063L24.7118 24.125C24.849 24.1436 24.988 24.1436 25.1252 24.125C25.3952 24.1288 25.6589 24.0425 25.8743 23.8796C26.0413 23.7607 26.1775 23.6039 26.2719 23.422C26.3662 23.24 26.4159 23.0383 26.4168 22.8334V4.75002C26.4175 4.47923 26.3331 4.21507 26.1755 3.99487C26.0179 3.77468 25.7951 3.60959 25.5385 3.52294ZM8.3335 21.0379L3.16683 19.32V3.9621L8.3335 5.68002V21.0379ZM16.0835 19.32L10.9168 21.0379V5.68002L16.0835 3.9621V19.32ZM23.8335 21.0379L18.6668 19.32V3.9621L23.8335 5.68002V21.0379Z"
        fill="#5F5F5F" />
</svg>
